<svg xmlns="http://www.w3.org/2000/svg" width="89.688" height="124.922" viewBox="0 0 89.688 124.922" fill="#51abcc"><path d="M88.547 0H0v94.365h.004c-.012.546-.06 9.546 9.113 14.616l.03.017.064.027c8.86 3.858 35.145 15.655 35.224 15.687l.464.212.465-.21c.078-.032 26.402-11.895 35.113-15.688l.063-.027.03-.016c9.172-5.07 9.125-14.07 9.113-14.616h.004V0h-1.14zm-9.043 106.965c-8.316 3.617-31.07 13.864-34.61 15.457-3.562-1.597-26.527-11.894-34.706-15.457-8.192-4.55-7.907-12.55-7.907-12.574l.005-.025V2.285h85.117v92.08l.004.025c0 .024.29 8.024-7.902 12.575z"/><path d="M59.445 40.012c-1.87 16.422-2.7 23.695-2.7 23.695s.415-.136 1.247-.136 5.23 1.105 5.23 5.09-3.602 5.337-5.266 5.337-1.8-.278-1.8-.278-8.142-11.293-8.142-28.27c0-10.84.727-20.75.727-26.328 0-.97-.05-6.235-3.843-10.438h-.003c-3.793 4.203-3.844 9.47-3.844 10.438 0 5.578.726 15.488.726 26.328 0 16.976-8.14 28.27-8.14 28.27s-.137.277-1.8.277-5.267-1.352-5.267-5.336 4.398-5.09 5.23-5.09c.832 0 1.25.137 1.25.137s-.832-7.273-2.703-23.695C26.71 22.45 13.512 16.317 13.512 16.317v75.97H31.11s1.28 10.706 10.667 17.53c0 0 2.98 2.562 3.12 3.394.138-.83 3.12-3.393 3.12-3.393 9.386-6.824 10.667-17.53 10.667-17.53h17.598v-75.97s-13.2 6.133-16.837 23.695zm-40.6-12.504s4.78 5.957 6.167 12.953c.76 6.447 2.285 18.986 2.285 18.986s-4.57 1.94-5.61 6.722h-2.843v-38.66zm11.64 59.653h-11.64V71.436h2.843c1.488 6.823 8.796 7.897 9.906 7.897-1.11 3.532-1.11 7.83-1.11 7.83zm11.71 15.868c-4.816-4.47-5.406-10.742-5.406-10.742h5.405v10.742zm-6.27-15.938c0-3.222.38-4.987.83-6.44 5.304.836 5.507 6.44 5.507 6.44h-6.336zm8.97-7.515s-4.64-3.153-6.028-4.055c3.707-5.613 6.028-14.204 6.028-14.204s2.324 8.59 6.03 14.204c-1.386.902-6.03 4.055-6.03 4.055zm2.703 23.453V92.286h5.406s-.59 6.274-5.406 10.742zm-.07-15.938s.206-5.604 5.51-6.44c.45 1.453.83 3.22.83 6.44h-6.34zm23.417.07H59.31s0-4.296-1.11-7.828c1.11 0 8.418-1.074 9.906-7.897h2.84V87.16zm0-20.992h-2.84c-1.04-4.78-5.61-6.722-5.61-6.722s1.524-12.54 2.286-18.985c1.388-6.995 6.165-12.952 6.165-12.952v38.66z"/></svg>